<svg xmlns="http://www.w3.org/2000/svg" xmlns:xlink="http://www.w3.org/1999/xlink" width="1012" zoomAndPan="magnify" viewBox="0 0 759 157.5" height="210" preserveAspectRatio="xMidYMid meet" version="1.0"><defs><g/><clipPath id="8dd37842ca"><path d="M 3 32 L 96 32 L 96 125 L 3 125 Z M 3 32 " clip-rule="nonzero"/></clipPath><clipPath id="72abce8d30"><path d="M 88.558594 78.710938 C 88.558594 100.347656 71.019531 117.890625 49.382812 117.890625 C 27.75 117.890625 10.210938 100.347656 10.210938 78.710938 C 10.210938 57.074219 27.75 39.535156 49.382812 39.535156 C 71.019531 39.535156 88.558594 57.074219 88.558594 78.710938 Z M 95.171875 78.710938 C 95.171875 104.003906 74.671875 124.503906 49.382812 124.503906 C 24.097656 124.503906 3.59375 104.003906 3.59375 78.710938 C 3.59375 53.421875 24.097656 32.917969 49.382812 32.917969 C 74.671875 32.917969 95.171875 53.421875 95.171875 78.710938 Z M 74.648438 58.183594 C 74.648438 60.800781 72.527344 62.921875 69.910156 62.921875 C 67.292969 62.921875 65.175781 60.800781 65.175781 58.183594 C 65.175781 55.566406 67.292969 53.449219 69.910156 53.449219 C 72.527344 53.449219 74.648438 55.566406 74.648438 58.183594 Z M 35.609375 82.402344 C 37.648438 90.011719 45.46875 94.523438 53.074219 92.484375 C 60.683594 90.449219 65.195312 82.628906 63.15625 75.019531 C 61.121094 67.414062 53.300781 62.898438 45.695312 64.9375 C 38.085938 66.976562 33.574219 74.796875 35.609375 82.402344 Z M 29.222656 84.113281 C 32.207031 95.25 43.652344 101.859375 54.785156 98.875 C 65.921875 95.890625 72.53125 84.445312 69.546875 73.308594 C 66.5625 62.171875 55.117188 55.566406 43.980469 58.546875 C 32.847656 61.53125 26.238281 72.980469 29.222656 84.113281 Z M 29.222656 84.113281 " clip-rule="evenodd"/></clipPath><linearGradient x1="15" gradientTransform="matrix(3.052599, 0, 0, 3.052809, 3.595623, 23.761425)" y1="2.999999" x2="15" gradientUnits="userSpaceOnUse" y2="32.999999" id="0fbae8e93c"><stop stop-opacity="1" stop-color="rgb(52.89917%, 49.398804%, 100%)" offset="0"/><stop stop-opacity="1" stop-color="rgb(52.796936%, 49.28894%, 100%)" offset="0.0078125"/><stop stop-opacity="1" stop-color="rgb(52.590942%, 49.07074%, 100%)" offset="0.015625"/><stop stop-opacity="1" stop-color="rgb(52.386475%, 48.852539%, 100%)" offset="0.0234375"/><stop stop-opacity="1" stop-color="rgb(52.182007%, 48.632812%, 100%)" offset="0.03125"/><stop stop-opacity="1" stop-color="rgb(51.976013%, 48.414612%, 100%)" offset="0.0390625"/><stop stop-opacity="1" stop-color="rgb(51.771545%, 48.196411%, 100%)" offset="0.046875"/><stop stop-opacity="1" stop-color="rgb(51.565552%, 47.97821%, 100%)" offset="0.0546875"/><stop stop-opacity="1" stop-color="rgb(51.361084%, 47.758484%, 100%)" offset="0.0625"/><stop stop-opacity="1" stop-color="rgb(51.156616%, 47.540283%, 100%)" offset="0.0703125"/><stop stop-opacity="1" stop-color="rgb(50.950623%, 47.322083%, 100%)" offset="0.078125"/><stop stop-opacity="1" stop-color="rgb(50.746155%, 47.103882%, 100%)" offset="0.0859375"/><stop stop-opacity="1" stop-color="rgb(50.540161%, 46.884155%, 100%)" offset="0.09375"/><stop stop-opacity="1" stop-color="rgb(50.335693%, 46.665955%, 100%)" offset="0.101562"/><stop stop-opacity="1" stop-color="rgb(50.131226%, 46.447754%, 100%)" offset="0.109375"/><stop stop-opacity="1" stop-color="rgb(49.925232%, 46.228027%, 100%)" offset="0.117188"/><stop stop-opacity="1" stop-color="rgb(49.720764%, 46.009827%, 100%)" offset="0.125"/><stop stop-opacity="1" stop-color="rgb(49.514771%, 45.791626%, 100%)" offset="0.132812"/><stop stop-opacity="1" stop-color="rgb(49.310303%, 45.573425%, 100%)" offset="0.140625"/><stop stop-opacity="1" stop-color="rgb(49.105835%, 45.353699%, 100%)" offset="0.148437"/><stop stop-opacity="1" stop-color="rgb(48.899841%, 45.135498%, 100%)" offset="0.15625"/><stop stop-opacity="1" stop-color="rgb(48.695374%, 44.917297%, 100%)" offset="0.164062"/><stop stop-opacity="1" stop-color="rgb(48.490906%, 44.699097%, 100%)" offset="0.171875"/><stop stop-opacity="1" stop-color="rgb(48.284912%, 44.47937%, 100%)" offset="0.179688"/><stop stop-opacity="1" stop-color="rgb(48.080444%, 44.261169%, 100%)" offset="0.1875"/><stop stop-opacity="1" stop-color="rgb(47.874451%, 44.042969%, 100%)" offset="0.195313"/><stop stop-opacity="1" stop-color="rgb(47.669983%, 43.824768%, 100%)" offset="0.203125"/><stop stop-opacity="1" stop-color="rgb(47.465515%, 43.605042%, 100%)" offset="0.210938"/><stop stop-opacity="1" stop-color="rgb(47.259521%, 43.386841%, 100%)" offset="0.21875"/><stop stop-opacity="1" stop-color="rgb(47.055054%, 43.16864%, 100%)" offset="0.226562"/><stop stop-opacity="1" stop-color="rgb(46.84906%, 42.948914%, 100%)" offset="0.234375"/><stop stop-opacity="1" stop-color="rgb(46.644592%, 42.730713%, 100%)" offset="0.242188"/><stop stop-opacity="1" stop-color="rgb(46.440125%, 42.512512%, 100%)" offset="0.25"/><stop stop-opacity="1" stop-color="rgb(46.234131%, 42.294312%, 100%)" offset="0.257812"/><stop stop-opacity="1" stop-color="rgb(46.029663%, 42.074585%, 100%)" offset="0.265625"/><stop stop-opacity="1" stop-color="rgb(45.825195%, 41.856384%, 100%)" offset="0.273438"/><stop stop-opacity="1" stop-color="rgb(45.619202%, 41.638184%, 100%)" offset="0.28125"/><stop stop-opacity="1" stop-color="rgb(45.414734%, 41.419983%, 100%)" offset="0.289062"/><stop stop-opacity="1" stop-color="rgb(45.20874%, 41.200256%, 100%)" offset="0.296875"/><stop stop-opacity="1" stop-color="rgb(45.004272%, 40.982056%, 100%)" offset="0.304688"/><stop stop-opacity="1" stop-color="rgb(44.799805%, 40.763855%, 100%)" offset="0.3125"/><stop stop-opacity="1" stop-color="rgb(44.593811%, 40.544128%, 100%)" offset="0.320312"/><stop stop-opacity="1" stop-color="rgb(44.389343%, 40.325928%, 100%)" offset="0.328125"/><stop stop-opacity="1" stop-color="rgb(44.18335%, 40.107727%, 100%)" offset="0.335938"/><stop stop-opacity="1" stop-color="rgb(43.978882%, 39.889526%, 100%)" offset="0.34375"/><stop stop-opacity="1" stop-color="rgb(43.774414%, 39.6698%, 100%)" offset="0.351562"/><stop stop-opacity="1" stop-color="rgb(43.56842%, 39.451599%, 100%)" offset="0.359375"/><stop stop-opacity="1" stop-color="rgb(43.363953%, 39.233398%, 100%)" offset="0.367188"/><stop stop-opacity="1" stop-color="rgb(43.159485%, 39.015198%, 100%)" offset="0.375"/><stop stop-opacity="1" stop-color="rgb(42.953491%, 38.795471%, 100%)" offset="0.382813"/><stop stop-opacity="1" stop-color="rgb(42.749023%, 38.577271%, 100%)" offset="0.390625"/><stop stop-opacity="1" stop-color="rgb(42.54303%, 38.35907%, 100%)" offset="0.398438"/><stop stop-opacity="1" stop-color="rgb(42.338562%, 38.139343%, 100%)" offset="0.40625"/><stop stop-opacity="1" stop-color="rgb(42.134094%, 37.921143%, 100%)" offset="0.414062"/><stop stop-opacity="1" stop-color="rgb(41.928101%, 37.702942%, 100%)" offset="0.421875"/><stop stop-opacity="1" stop-color="rgb(41.723633%, 37.484741%, 100%)" offset="0.429688"/><stop stop-opacity="1" stop-color="rgb(41.517639%, 37.265015%, 100%)" offset="0.4375"/><stop stop-opacity="1" stop-color="rgb(41.313171%, 37.046814%, 100%)" offset="0.445313"/><stop stop-opacity="1" stop-color="rgb(41.108704%, 36.828613%, 100%)" offset="0.453125"/><stop stop-opacity="1" stop-color="rgb(40.90271%, 36.610413%, 100%)" offset="0.460938"/><stop stop-opacity="1" stop-color="rgb(40.644836%, 36.329651%, 100%)" offset="0.46875"/><stop stop-opacity="1" stop-color="rgb(40.332031%, 35.98938%, 100%)" offset="0.476562"/><stop stop-opacity="1" stop-color="rgb(40.0177%, 35.646057%, 100%)" offset="0.484375"/><stop stop-opacity="1" stop-color="rgb(39.704895%, 35.30426%, 100%)" offset="0.492188"/><stop stop-opacity="1" stop-color="rgb(39.39209%, 34.962463%, 100%)" offset="0.5"/><stop stop-opacity="1" stop-color="rgb(39.079285%, 34.620667%, 100%)" offset="0.507812"/><stop stop-opacity="1" stop-color="rgb(38.766479%, 34.27887%, 100%)" offset="0.515625"/><stop stop-opacity="1" stop-color="rgb(38.453674%, 33.937073%, 100%)" offset="0.523438"/><stop stop-opacity="1" stop-color="rgb(38.139343%, 33.59375%, 100%)" offset="0.53125"/><stop stop-opacity="1" stop-color="rgb(37.826538%, 33.251953%, 100%)" offset="0.539062"/><stop stop-opacity="1" stop-color="rgb(37.513733%, 32.910156%, 100%)" offset="0.546875"/><stop stop-opacity="1" stop-color="rgb(37.200928%, 32.568359%, 100%)" offset="0.554688"/><stop stop-opacity="1" stop-color="rgb(36.888123%, 32.226562%, 100%)" offset="0.5625"/><stop stop-opacity="1" stop-color="rgb(36.573792%, 31.88324%, 100%)" offset="0.570312"/><stop stop-opacity="1" stop-color="rgb(36.260986%, 31.541443%, 100%)" offset="0.578125"/><stop stop-opacity="1" stop-color="rgb(35.948181%, 31.199646%, 100%)" offset="0.585937"/><stop stop-opacity="1" stop-color="rgb(35.635376%, 30.857849%, 100%)" offset="0.59375"/><stop stop-opacity="1" stop-color="rgb(35.322571%, 30.516052%, 100%)" offset="0.601562"/><stop stop-opacity="1" stop-color="rgb(35.009766%, 30.174255%, 100%)" offset="0.609375"/><stop stop-opacity="1" stop-color="rgb(34.695435%, 29.830933%, 100%)" offset="0.617188"/><stop stop-opacity="1" stop-color="rgb(34.382629%, 29.489136%, 100%)" offset="0.625"/><stop stop-opacity="1" stop-color="rgb(34.069824%, 29.147339%, 100%)" offset="0.632812"/><stop stop-opacity="1" stop-color="rgb(33.757019%, 28.805542%, 100%)" offset="0.640625"/><stop stop-opacity="1" stop-color="rgb(33.444214%, 28.463745%, 100%)" offset="0.648438"/><stop stop-opacity="1" stop-color="rgb(33.131409%, 28.120422%, 100%)" offset="0.65625"/><stop stop-opacity="1" stop-color="rgb(32.817078%, 27.778625%, 100%)" offset="0.664063"/><stop stop-opacity="1" stop-color="rgb(32.504272%, 27.436829%, 100%)" offset="0.671875"/><stop stop-opacity="1" stop-color="rgb(32.191467%, 27.095032%, 100%)" offset="0.679688"/><stop stop-opacity="1" stop-color="rgb(31.878662%, 26.753235%, 100%)" offset="0.6875"/><stop stop-opacity="1" stop-color="rgb(31.565857%, 26.411438%, 100%)" offset="0.695312"/><stop stop-opacity="1" stop-color="rgb(31.251526%, 26.068115%, 100%)" offset="0.703125"/><stop stop-opacity="1" stop-color="rgb(30.938721%, 25.726318%, 100%)" offset="0.710938"/><stop stop-opacity="1" stop-color="rgb(30.625916%, 25.384521%, 100%)" offset="0.71875"/><stop stop-opacity="1" stop-color="rgb(30.31311%, 25.042725%, 100%)" offset="0.726562"/><stop stop-opacity="1" stop-color="rgb(30.000305%, 24.700928%, 100%)" offset="0.734375"/><stop stop-opacity="1" stop-color="rgb(29.6875%, 24.359131%, 100%)" offset="0.742188"/><stop stop-opacity="1" stop-color="rgb(29.373169%, 24.015808%, 100%)" offset="0.75"/><stop stop-opacity="1" stop-color="rgb(29.060364%, 23.674011%, 100%)" offset="0.757812"/><stop stop-opacity="1" stop-color="rgb(28.747559%, 23.332214%, 100%)" offset="0.765625"/><stop stop-opacity="1" stop-color="rgb(28.434753%, 22.990417%, 100%)" offset="0.773438"/><stop stop-opacity="1" stop-color="rgb(28.121948%, 22.648621%, 100%)" offset="0.78125"/><stop stop-opacity="1" stop-color="rgb(27.807617%, 22.305298%, 100%)" offset="0.789063"/><stop stop-opacity="1" stop-color="rgb(27.494812%, 21.963501%, 100%)" offset="0.796875"/><stop stop-opacity="1" stop-color="rgb(27.182007%, 21.621704%, 100%)" offset="0.804688"/><stop stop-opacity="1" stop-color="rgb(26.869202%, 21.279907%, 100%)" offset="0.8125"/><stop stop-opacity="1" stop-color="rgb(26.556396%, 20.93811%, 100%)" offset="0.820313"/><stop stop-opacity="1" stop-color="rgb(26.243591%, 20.596313%, 100%)" offset="0.828125"/><stop stop-opacity="1" stop-color="rgb(25.92926%, 20.252991%, 100%)" offset="0.835938"/><stop stop-opacity="1" stop-color="rgb(25.616455%, 19.911194%, 100%)" offset="0.84375"/><stop stop-opacity="1" stop-color="rgb(25.30365%, 19.569397%, 100%)" offset="0.851562"/><stop stop-opacity="1" stop-color="rgb(24.990845%, 19.2276%, 100%)" offset="0.859375"/><stop stop-opacity="1" stop-color="rgb(24.67804%, 18.885803%, 100%)" offset="0.867188"/><stop stop-opacity="1" stop-color="rgb(24.363708%, 18.54248%, 100%)" offset="0.875"/><stop stop-opacity="1" stop-color="rgb(24.050903%, 18.200684%, 100%)" offset="0.882813"/><stop stop-opacity="1" stop-color="rgb(23.738098%, 17.858887%, 100%)" offset="0.890625"/><stop stop-opacity="1" stop-color="rgb(23.425293%, 17.51709%, 100%)" offset="0.898438"/><stop stop-opacity="1" stop-color="rgb(23.112488%, 17.175293%, 100%)" offset="0.90625"/><stop stop-opacity="1" stop-color="rgb(22.799683%, 16.833496%, 100%)" offset="0.914062"/><stop stop-opacity="1" stop-color="rgb(22.485352%, 16.490173%, 100%)" offset="0.921875"/><stop stop-opacity="1" stop-color="rgb(22.172546%, 16.148376%, 100%)" offset="0.929688"/><stop stop-opacity="1" stop-color="rgb(21.859741%, 15.80658%, 100%)" offset="0.9375"/><stop stop-opacity="1" stop-color="rgb(21.546936%, 15.464783%, 100%)" offset="0.945312"/><stop stop-opacity="1" stop-color="rgb(21.234131%, 15.122986%, 100%)" offset="0.953125"/><stop stop-opacity="1" stop-color="rgb(20.9198%, 14.781189%, 100%)" offset="0.960938"/><stop stop-opacity="1" stop-color="rgb(20.606995%, 14.437866%, 100%)" offset="0.96875"/><stop stop-opacity="1" stop-color="rgb(20.294189%, 14.096069%, 100%)" offset="0.976563"/><stop stop-opacity="1" stop-color="rgb(19.981384%, 13.754272%, 100%)" offset="0.984375"/><stop stop-opacity="1" stop-color="rgb(19.668579%, 13.412476%, 100%)" offset="0.992188"/><stop stop-opacity="1" stop-color="rgb(19.355774%, 13.070679%, 100%)" offset="1"/></linearGradient></defs><g clip-path="url(#8dd37842ca)"><g clip-path="url(#72abce8d30)"><path fill="url(#0fbae8e93c)" d="M 3.59375 32.917969 L 3.59375 124.503906 L 95.171875 124.503906 L 95.171875 32.917969 Z M 3.59375 32.917969 " fill-rule="nonzero"/></g></g><g fill="#ffffff" fill-opacity="1"><g transform="translate(97.259966, 104.313729)"><g><path d="M 20.269531 0.679688 L 26.222656 0.828125 L 27.730469 0.679688 L 29.238281 0.300781 L 30.742188 0.0742188 L 32.25 -0.527344 L 33.609375 -0.679688 L 35.039062 -1.355469 L 40.164062 -4.445312 L 42.347656 -6.707031 L 43.101562 -7.761719 L 43.929688 -9.417969 L 44.382812 -10.777344 L 44.835938 -12.054688 L 45.289062 -15.824219 L 45.136719 -18.234375 L 44.007812 -22.605469 L 43.175781 -23.8125 L 41.21875 -26.070312 L 39.863281 -27.277344 L 38.65625 -27.878906 L 37.300781 -28.710938 L 31.421875 -30.519531 L 29.914062 -30.742188 L 28.40625 -30.820312 L 26.824219 -31.121094 L 24.640625 -31.121094 L 20.648438 -31.949219 L 17.859375 -33.304688 L 16.726562 -34.359375 L 16.425781 -36.621094 L 16.804688 -38.65625 L 17.707031 -39.636719 L 18.839844 -40.464844 L 20.042969 -41.144531 L 21.398438 -41.445312 L 23.8125 -41.519531 L 26.222656 -41.21875 L 27.578125 -40.839844 L 28.9375 -39.9375 L 30.214844 -38.882812 L 31.347656 -37.375 L 33.003906 -36.394531 L 36.546875 -36.695312 L 38.582031 -36.546875 L 40.089844 -36.546875 L 41.445312 -36.394531 L 42.875 -37.449219 L 43.480469 -38.730469 L 43.175781 -40.164062 L 43.027344 -41.59375 L 40.917969 -45.511719 L 39.257812 -47.773438 L 34.285156 -51.238281 L 30.066406 -52.671875 L 27.128906 -53.273438 L 21.324219 -53.425781 L 19.667969 -52.972656 L 18.160156 -52.898438 L 16.804688 -52.671875 L 13.941406 -51.769531 L 11.378906 -50.261719 L 7.761719 -47.773438 L 5.125 -44.230469 L 3.769531 -40.089844 L 3.542969 -36.394531 L 3.617188 -34.058594 L 4.144531 -31.046875 L 5.351562 -28.40625 L 8.136719 -24.941406 L 13.261719 -22.152344 L 15.976562 -21.25 L 27.804688 -19.894531 L 30.519531 -18.613281 L 31.496094 -17.707031 L 31.949219 -15.824219 L 31.347656 -13.941406 L 30.367188 -12.808594 L 27.804688 -11.679688 L 25.46875 -11.527344 L 24.113281 -11.304688 L 20.269531 -11.679688 L 18.988281 -12.359375 L 17.707031 -13.1875 L 15.222656 -15.898438 L 13.714844 -16.503906 L 12.359375 -16.351562 L 10.925781 -16.578125 L 5.125 -16.277344 L 3.769531 -15.671875 L 3.164062 -14.089844 L 3.390625 -12.585938 L 3.691406 -11.078125 L 4.144531 -9.71875 L 5.574219 -6.933594 L 6.632812 -5.953125 L 7.609375 -4.824219 L 10.246094 -3.164062 L 11.304688 -2.035156 L 12.734375 -1.355469 L 14.242188 -0.902344 L 17.179688 0.152344 Z M 20.269531 0.679688 "/></g></g></g><g fill="#ffffff" fill-opacity="1"><g transform="translate(145.331157, 104.313729)"><g><path d="M 5.726562 -2.109375 L 6.328125 -0.527344 L 8.0625 0.152344 L 9.496094 0.152344 L 11.832031 -0.0742188 L 14.015625 0 L 15.597656 0.226562 L 17.179688 0.0742188 L 18.839844 -0.601562 L 19.441406 -2.109375 L 19.515625 -3.617188 L 19.289062 -5.273438 L 19.441406 -6.632812 L 19.289062 -8.136719 L 19.441406 -9.570312 L 19.367188 -11.226562 L 19.515625 -12.808594 L 19.289062 -18.761719 L 20.042969 -20.34375 L 21.550781 -21.25 L 23.132812 -21.25 L 24.488281 -21.097656 L 28.9375 -21.097656 L 30.441406 -21.25 L 31.949219 -21.097656 L 33.382812 -21.097656 L 34.738281 -20.34375 L 35.492188 -18.839844 L 35.71875 -14.242188 L 35.492188 -12.808594 L 35.792969 -7.460938 L 35.492188 -5.199219 L 35.71875 -2.261719 L 36.472656 -0.679688 L 37.976562 0.0742188 L 39.484375 -0.0742188 L 41.746094 0.152344 L 46.945312 0.152344 L 48.453125 -0.679688 L 49.28125 -2.109375 L 49.582031 -5.199219 L 49.582031 -17.332031 L 49.28125 -20.195312 L 49.355469 -21.703125 L 49.207031 -23.285156 L 49.207031 -24.792969 L 49.433594 -26.375 L 49.355469 -29.238281 L 49.507812 -30.894531 L 49.28125 -38.28125 L 49.65625 -44.535156 L 49.355469 -45.964844 L 49.207031 -47.398438 L 49.507812 -48.902344 L 49.355469 -50.410156 L 48.601562 -51.917969 L 46.265625 -52.671875 L 42.425781 -52.746094 L 40.011719 -52.519531 L 38.503906 -52.519531 L 36.246094 -51.84375 L 35.640625 -49.65625 L 35.792969 -41.445312 L 35.492188 -40.164062 L 35.492188 -35.792969 L 34.664062 -34.285156 L 33.382812 -33.53125 L 30.367188 -33.53125 L 29.011719 -33.683594 L 21.703125 -33.609375 L 20.121094 -34.285156 L 19.515625 -35.71875 L 19.515625 -40.238281 L 19.667969 -41.59375 L 19.441406 -49.054688 L 19.515625 -50.335938 L 18.613281 -51.917969 L 16.277344 -52.671875 L 11.832031 -52.519531 L 10.324219 -52.671875 L 8.890625 -52.519531 L 6.554688 -51.84375 L 5.726562 -50.5625 L 5.5 -48.902344 L 5.5 -47.472656 L 5.652344 -45.816406 L 5.425781 -44.382812 L 5.800781 -39.863281 L 5.574219 -38.203125 L 5.726562 -36.921875 L 5.425781 -35.417969 L 5.726562 -30.820312 L 5.574219 -29.238281 L 5.574219 -24.867188 L 5.800781 -23.433594 L 5.652344 -21.097656 L 5.800781 -19.367188 L 5.574219 -15.824219 L 5.726562 -14.167969 L 5.5 -12.660156 L 5.726562 -11.304688 L 5.574219 -9.796875 Z M 5.726562 -2.109375 "/></g></g></g><g fill="#ffffff" fill-opacity="1"><g transform="translate(200.48494, 104.313729)"><g><path d="M 22.230469 0.601562 L 25.847656 0.902344 L 29.613281 0.753906 L 32.628906 0.0742188 L 34.210938 -0.527344 L 35.71875 -0.902344 L 36.921875 -1.65625 L 38.28125 -2.261719 L 39.484375 -3.089844 L 42.875 -6.105469 L 43.703125 -7.460938 L 44.683594 -8.589844 L 45.136719 -10.097656 L 45.890625 -11.378906 L 46.417969 -12.808594 L 46.945312 -20.421875 L 46.71875 -26.523438 L 47.019531 -28.105469 L 47.019531 -29.464844 L 46.71875 -30.96875 L 46.644531 -32.402344 L 46.792969 -33.984375 L 46.71875 -36.09375 L 46.871094 -38.429688 L 46.792969 -40.089844 L 47.019531 -41.519531 L 46.792969 -43.027344 L 46.871094 -49.128906 L 46.644531 -50.410156 L 46.039062 -52.070312 L 43.628906 -52.746094 L 36.546875 -52.824219 L 34.886719 -52.144531 L 34.136719 -50.488281 L 34.210938 -43.101562 L 34.058594 -41.59375 L 34.136719 -38.65625 L 33.984375 -37.074219 L 34.210938 -35.492188 L 33.984375 -29.539062 L 34.285156 -28.183594 L 34.136719 -26.523438 L 34.210938 -23.8125 L 34.058594 -22.304688 L 34.136719 -18.460938 L 33.832031 -16.050781 L 33.15625 -14.617188 L 32.476562 -13.5625 L 31.273438 -12.433594 L 28.257812 -11.453125 L 26.222656 -11.304688 L 23.734375 -11.453125 L 22.378906 -11.832031 L 20.722656 -12.660156 L 19.59375 -13.640625 L 18.6875 -14.695312 L 18.234375 -16.277344 L 18.085938 -29.539062 L 17.859375 -31.046875 L 17.785156 -35.71875 L 17.933594 -37.074219 L 17.933594 -43.101562 L 17.707031 -45.289062 L 17.707031 -46.71875 L 18.085938 -48.980469 L 18.085938 -50.5625 L 17.257812 -51.992188 L 15.449219 -52.671875 L 7.535156 -52.746094 L 6.027344 -51.917969 L 5.351562 -50.410156 L 5.351562 -45.890625 L 4.972656 -44.609375 L 5.273438 -41.445312 L 5.046875 -38.582031 L 5.425781 -34.058594 L 5.125 -32.628906 L 5.351562 -30.96875 L 5.199219 -29.539062 L 5.273438 -28.03125 L 5.125 -26.601562 L 5.351562 -23.585938 L 5.273438 -18.160156 L 5.5 -15.976562 L 5.5 -14.390625 L 5.953125 -12.886719 L 6.179688 -11.453125 L 6.632812 -10.023438 L 8.136719 -7.460938 L 10.171875 -4.972656 L 11.152344 -3.992188 L 13.714844 -2.488281 L 14.84375 -1.582031 L 16.277344 -0.980469 L 18.007812 -0.453125 L 19.140625 0.152344 L 20.796875 0.226562 Z M 22.230469 0.601562 "/></g></g></g><g fill="#ffffff" fill-opacity="1"><g transform="translate(252.474167, 104.313729)"><g><path d="M 14.46875 -2.335938 L 15.070312 -0.753906 L 16.652344 0 L 18.085938 -0.152344 L 19.59375 0 L 21.023438 -0.152344 L 25.695312 -0.152344 L 27.203125 -0.753906 L 27.804688 -2.261719 L 27.730469 -3.691406 L 27.878906 -5.425781 L 27.804688 -8.441406 L 27.578125 -9.71875 L 27.804688 -11.304688 L 27.957031 -15.898438 L 27.804688 -17.257812 L 28.03125 -20.421875 L 27.730469 -35.417969 L 27.957031 -36.921875 L 27.804688 -38.582031 L 28.40625 -39.9375 L 30.066406 -40.617188 L 31.347656 -40.691406 L 32.855469 -40.617188 L 34.210938 -40.765625 L 38.355469 -40.691406 L 40.089844 -41.367188 L 40.839844 -42.875 L 40.691406 -44.457031 L 40.839844 -50.636719 L 40.089844 -52.144531 L 38.582031 -52.898438 L 36.773438 -52.746094 L 35.566406 -52.898438 L 34.136719 -52.898438 L 32.476562 -52.671875 L 30.96875 -52.671875 L 29.464844 -52.824219 L 27.957031 -52.824219 L 26.222656 -52.597656 L 3.769531 -52.746094 L 2.109375 -51.992188 L 1.355469 -50.488281 L 1.28125 -42.953125 L 2.109375 -41.292969 L 3.617188 -40.539062 L 5.574219 -40.765625 L 12.28125 -40.691406 L 13.640625 -39.863281 L 14.390625 -38.429688 L 14.617188 -30.140625 L 14.390625 -27.804688 L 14.542969 -26.375 L 14.390625 -24.867188 L 14.390625 -21.851562 L 14.617188 -19.667969 L 14.316406 -17.40625 L 14.390625 -15.898438 L 14.316406 -14.316406 L 14.542969 -9.71875 L 14.390625 -8.214844 Z M 14.46875 -2.335938 "/></g></g></g><g fill="#ffffff" fill-opacity="1"><g transform="translate(294.592968, 104.313729)"><g><path d="M 14.46875 -2.335938 L 15.070312 -0.753906 L 16.652344 0 L 18.085938 -0.152344 L 19.59375 0 L 21.023438 -0.152344 L 25.695312 -0.152344 L 27.203125 -0.753906 L 27.804688 -2.261719 L 27.730469 -3.691406 L 27.878906 -5.425781 L 27.804688 -8.441406 L 27.578125 -9.71875 L 27.804688 -11.304688 L 27.957031 -15.898438 L 27.804688 -17.257812 L 28.03125 -20.421875 L 27.730469 -35.417969 L 27.957031 -36.921875 L 27.804688 -38.582031 L 28.40625 -39.9375 L 30.066406 -40.617188 L 31.347656 -40.691406 L 32.855469 -40.617188 L 34.210938 -40.765625 L 38.355469 -40.691406 L 40.089844 -41.367188 L 40.839844 -42.875 L 40.691406 -44.457031 L 40.839844 -50.636719 L 40.089844 -52.144531 L 38.582031 -52.898438 L 36.773438 -52.746094 L 35.566406 -52.898438 L 34.136719 -52.898438 L 32.476562 -52.671875 L 30.96875 -52.671875 L 29.464844 -52.824219 L 27.957031 -52.824219 L 26.222656 -52.597656 L 3.769531 -52.746094 L 2.109375 -51.992188 L 1.355469 -50.488281 L 1.28125 -42.953125 L 2.109375 -41.292969 L 3.617188 -40.539062 L 5.574219 -40.765625 L 12.28125 -40.691406 L 13.640625 -39.863281 L 14.390625 -38.429688 L 14.617188 -30.140625 L 14.390625 -27.804688 L 14.542969 -26.375 L 14.390625 -24.867188 L 14.390625 -21.851562 L 14.617188 -19.667969 L 14.316406 -17.40625 L 14.390625 -15.898438 L 14.316406 -14.316406 L 14.542969 -9.71875 L 14.390625 -8.214844 Z M 14.46875 -2.335938 "/></g></g></g><g fill="#ffffff" fill-opacity="1"><g transform="translate(336.711781, 104.313729)"><g><path d="M 5.425781 -2.183594 L 6.40625 -0.753906 L 7.835938 0.0742188 L 24.867188 -0.0742188 L 26.222656 0.152344 L 30.820312 -0.0742188 L 35.417969 0.226562 L 36.847656 0.0742188 L 38.429688 -0.679688 L 39.109375 -2.109375 L 39.257812 -3.542969 L 39.183594 -8.214844 L 39.335938 -9.644531 L 38.355469 -11.152344 L 36.09375 -11.90625 L 26.148438 -12.054688 L 24.714844 -11.832031 L 23.058594 -11.980469 L 21.398438 -11.832031 L 19.816406 -12.734375 L 19.140625 -15.070312 L 19.214844 -18.761719 L 19.894531 -20.34375 L 21.25 -21.175781 L 24.1875 -21.175781 L 25.695312 -21.324219 L 29.6875 -21.097656 L 31.722656 -21.25 L 33.304688 -21.097656 L 34.664062 -21.175781 L 36.167969 -22.003906 L 36.921875 -23.433594 L 37.074219 -29.386719 L 36.921875 -30.894531 L 36.246094 -32.328125 L 34.964844 -33.15625 L 31.949219 -33.230469 L 30.441406 -33.082031 L 28.859375 -33.082031 L 27.128906 -33.230469 L 21.175781 -33.15625 L 19.894531 -33.984375 L 18.988281 -35.339844 L 18.839844 -37.675781 L 19.59375 -39.863281 L 21.929688 -40.539062 L 36.394531 -40.617188 L 37.976562 -41.445312 L 38.808594 -42.800781 L 38.65625 -45.890625 L 38.429688 -47.320312 L 38.503906 -48.980469 L 38.730469 -50.410156 L 37.976562 -51.917969 L 36.394531 -52.597656 L 30.367188 -52.671875 L 29.011719 -52.519531 L 27.503906 -52.746094 L 24.1875 -52.597656 L 22.679688 -52.746094 L 19.742188 -52.671875 L 18.386719 -52.824219 L 8.515625 -52.597656 L 6.328125 -52.070312 L 5.574219 -50.410156 L 5.726562 -47.398438 L 5.425781 -45.210938 L 5.726562 -41.367188 L 5.574219 -39.785156 L 5.726562 -38.429688 L 5.726562 -24.941406 L 5.5 -23.359375 L 5.726562 -20.421875 L 5.574219 -17.40625 L 5.800781 -15.824219 L 5.652344 -14.167969 L 5.726562 -12.734375 L 5.5 -11.378906 L 5.652344 -9.644531 L 5.652344 -8.136719 L 5.800781 -5.199219 L 5.726562 -3.691406 Z M 5.425781 -2.183594 "/></g></g></g><g fill="#ffffff" fill-opacity="1"><g transform="translate(379.885435, 104.313729)"><g><path d="M 5.800781 -2.410156 L 6.328125 -0.753906 L 7.835938 0 L 9.269531 0.0742188 L 12.359375 -0.152344 L 13.941406 0 L 16.199219 0 L 18.535156 -0.753906 L 19.0625 -2.183594 L 19.214844 -3.769531 L 18.914062 -5.351562 L 19.140625 -8.589844 L 18.988281 -13.261719 L 19.667969 -14.769531 L 21.175781 -15.523438 L 22.53125 -15.523438 L 23.886719 -15.597656 L 25.769531 -14.996094 L 26.976562 -13.714844 L 28.9375 -11.078125 L 29.464844 -9.644531 L 31.574219 -5.878906 L 32.550781 -4.445312 L 33.230469 -3.164062 L 34.136719 -1.960938 L 35.640625 -0.601562 L 37.527344 -0.152344 L 40.238281 0 L 41.894531 -0.152344 L 43.402344 0 L 46.417969 0 L 48.074219 -0.152344 L 49.65625 -0.527344 L 49.960938 -2.109375 L 48.980469 -3.992188 L 46.566406 -7.6875 L 45.890625 -8.96875 L 44.984375 -10.324219 L 44.230469 -11.679688 L 43.253906 -12.886719 L 40.992188 -16.804688 L 40.765625 -18.613281 L 41.59375 -20.195312 L 43.703125 -22.230469 L 44.609375 -23.511719 L 45.136719 -24.941406 L 45.964844 -26.296875 L 46.492188 -27.578125 L 47.320312 -30.441406 L 47.398438 -36.394531 L 47.019531 -37.828125 L 46.792969 -39.257812 L 46.417969 -40.765625 L 44.382812 -44.910156 L 43.328125 -46.039062 L 42.648438 -47.171875 L 38.882812 -50.035156 L 36.246094 -51.390625 L 29.992188 -52.671875 L 28.105469 -52.824219 L 25.921875 -52.746094 L 24.265625 -52.824219 L 22.757812 -52.671875 L 21.097656 -52.824219 L 19.816406 -52.671875 L 15.296875 -52.824219 L 13.863281 -52.597656 L 10.777344 -52.898438 L 9.34375 -52.671875 L 7.6875 -52.746094 L 6.253906 -52.070312 L 5.652344 -50.488281 L 5.425781 -29.386719 L 5.652344 -27.203125 L 5.652344 -23.433594 L 5.5 -21.851562 L 5.425781 -18.988281 L 5.652344 -17.332031 L 5.425781 -14.242188 L 5.726562 -9.871094 L 5.574219 -8.289062 Z M 21.175781 -27.730469 L 19.894531 -28.40625 L 19.140625 -29.992188 L 18.914062 -38.429688 L 19.816406 -39.9375 L 21.324219 -40.691406 L 22.53125 -40.765625 L 26.675781 -40.691406 L 30.140625 -40.238281 L 32.476562 -38.808594 L 33.230469 -37.675781 L 33.757812 -36.472656 L 33.910156 -34.285156 L 33.683594 -32.25 L 33.082031 -30.742188 L 32.25 -29.464844 L 31.347656 -28.558594 L 30.214844 -28.03125 L 24.339844 -27.503906 L 22.832031 -27.730469 Z M 21.175781 -27.730469 "/></g></g></g><g fill="#ffffff" fill-opacity="1"><g transform="translate(432.100697, 104.313729)"><g><path d="M 21.851562 0.601562 L 24.039062 0.828125 L 26.449219 0.753906 L 33.832031 -0.679688 L 37.753906 -2.789062 L 40.164062 -4.445312 L 42.273438 -6.855469 L 43.78125 -9.269531 L 44.382812 -10.625 L 44.835938 -12.132812 L 45.0625 -13.488281 L 45.136719 -18.160156 L 44.910156 -19.667969 L 44.535156 -21.097656 L 43.027344 -23.886719 L 41.21875 -26.222656 L 39.9375 -27.277344 L 35.945312 -29.085938 L 29.765625 -30.59375 L 22.152344 -31.574219 L 18.988281 -32.703125 L 17.859375 -33.304688 L 16.652344 -34.511719 L 16.578125 -36.546875 L 16.804688 -38.503906 L 17.632812 -39.558594 L 18.914062 -40.539062 L 19.96875 -40.992188 L 21.324219 -41.292969 L 26.148438 -41.445312 L 27.804688 -40.839844 L 28.9375 -39.9375 L 31.421875 -37.300781 L 33.757812 -36.546875 L 38.730469 -36.394531 L 40.089844 -36.546875 L 41.519531 -36.394531 L 42.953125 -37.300781 L 43.628906 -38.730469 L 43.027344 -41.671875 L 41.820312 -44.382812 L 40.839844 -45.589844 L 40.089844 -46.792969 L 39.109375 -47.925781 L 34.285156 -51.238281 L 30.140625 -52.671875 L 28.558594 -52.972656 L 27.203125 -53.125 L 25.542969 -53.5 L 21.324219 -53.425781 L 15.371094 -52.21875 L 14.015625 -51.691406 L 12.808594 -50.9375 L 11.605469 -50.488281 L 10.097656 -49.582031 L 9.042969 -48.601562 L 7.6875 -47.699219 L 6.855469 -46.417969 L 5.878906 -45.4375 L 5.351562 -44.082031 L 4.597656 -42.875 L 3.542969 -38.503906 L 3.617188 -33.457031 L 4.144531 -31.347656 L 5.125 -28.710938 L 7.007812 -26.222656 L 9.117188 -24.265625 L 11.753906 -22.679688 L 16.050781 -21.25 L 18.761719 -20.648438 L 24.941406 -20.195312 L 26.296875 -19.96875 L 27.804688 -19.894531 L 30.519531 -18.761719 L 31.574219 -17.859375 L 31.949219 -15.898438 L 31.496094 -13.941406 L 30.292969 -12.886719 L 29.085938 -12.207031 L 26.296875 -11.378906 L 24.1875 -11.304688 L 21.929688 -11.453125 L 20.195312 -11.90625 L 19.0625 -12.433594 L 17.707031 -13.261719 L 16.578125 -14.316406 L 15.449219 -15.824219 L 13.941406 -16.425781 L 8.214844 -16.578125 L 6.707031 -16.425781 L 5.199219 -16.503906 L 3.691406 -15.824219 L 3.164062 -14.242188 L 3.316406 -12.585938 L 3.617188 -11.226562 L 4.824219 -8.214844 L 6.707031 -5.878906 L 8.890625 -3.691406 L 10.171875 -2.863281 L 15.597656 -0.375 L 17.257812 -0.152344 L 18.6875 0.375 Z M 21.851562 0.601562 "/></g></g></g><g fill="#ffffff" fill-opacity="1"><g transform="translate(480.171889, 104.313729)"><g><path d="M 5.574219 -2.335938 L 6.179688 -0.753906 L 7.761719 -0.152344 L 9.269531 0 L 13.714844 -0.0742188 L 15.371094 0.0742188 L 16.953125 0.0742188 L 18.460938 -0.753906 L 19.140625 -2.335938 L 19.214844 -5.351562 L 19.0625 -6.78125 L 19.289062 -8.136719 L 19.140625 -9.796875 L 19.140625 -11.378906 L 19.667969 -12.660156 L 21.703125 -13.414062 L 23.359375 -13.640625 L 25.621094 -13.414062 L 29.539062 -13.488281 L 32.628906 -14.089844 L 37 -15.371094 L 39.558594 -16.953125 L 40.765625 -17.859375 L 43.027344 -20.042969 L 45.4375 -23.660156 L 46.117188 -25.015625 L 46.644531 -26.375 L 47.320312 -29.464844 L 47.472656 -30.820312 L 47.546875 -35.265625 L 46.191406 -41.144531 L 44.683594 -43.855469 L 43.703125 -45.136719 L 42.726562 -46.191406 L 41.894531 -47.320312 L 40.617188 -48.453125 L 38.355469 -49.960938 L 35.640625 -51.390625 L 34.058594 -51.691406 L 32.550781 -52.296875 L 31.195312 -52.597656 L 8.664062 -52.671875 L 6.632812 -51.992188 L 5.878906 -50.5625 L 5.726562 -48.980469 L 5.726562 -45.890625 L 5.5 -44.535156 L 5.5 -43.101562 L 5.726562 -41.519531 L 5.726562 -33.832031 L 5.574219 -32.328125 L 5.726562 -30.96875 L 5.574219 -29.3125 L 5.800781 -26.222656 L 5.5 -24.1875 L 5.726562 -21.929688 L 5.574219 -20.496094 L 5.574219 -17.332031 L 5.800781 -15.898438 L 5.574219 -12.886719 L 5.800781 -8.136719 L 5.425781 -6.632812 L 5.726562 -5.199219 L 5.5 -3.769531 Z M 21.550781 -25.695312 L 20.121094 -26.375 L 19.214844 -27.878906 L 19.0625 -38.355469 L 19.96875 -40.011719 L 21.476562 -40.617188 L 23.359375 -40.765625 L 29.386719 -40.464844 L 30.667969 -39.785156 L 31.800781 -38.957031 L 33.003906 -37.828125 L 33.757812 -36.546875 L 34.4375 -33.003906 L 33.609375 -29.539062 L 31.875 -27.429688 L 30.667969 -26.601562 L 29.464844 -25.921875 L 23.285156 -25.542969 Z M 21.550781 -25.695312 "/></g></g></g><g fill="#ffffff" fill-opacity="1"><g transform="translate(529.750016, 104.313729)"><g><path d="M 5.726562 -2.109375 L 6.328125 -0.527344 L 8.0625 0.152344 L 9.496094 0.152344 L 11.832031 -0.0742188 L 14.015625 0 L 15.597656 0.226562 L 17.179688 0.0742188 L 18.839844 -0.601562 L 19.441406 -2.109375 L 19.515625 -3.617188 L 19.289062 -5.273438 L 19.441406 -6.632812 L 19.289062 -8.136719 L 19.441406 -9.570312 L 19.367188 -11.226562 L 19.515625 -12.808594 L 19.289062 -18.761719 L 20.042969 -20.34375 L 21.550781 -21.25 L 23.132812 -21.25 L 24.488281 -21.097656 L 28.9375 -21.097656 L 30.441406 -21.25 L 31.949219 -21.097656 L 33.382812 -21.097656 L 34.738281 -20.34375 L 35.492188 -18.839844 L 35.71875 -14.242188 L 35.492188 -12.808594 L 35.792969 -7.460938 L 35.492188 -5.199219 L 35.71875 -2.261719 L 36.472656 -0.679688 L 37.976562 0.0742188 L 39.484375 -0.0742188 L 41.746094 0.152344 L 46.945312 0.152344 L 48.453125 -0.679688 L 49.28125 -2.109375 L 49.582031 -5.199219 L 49.582031 -17.332031 L 49.28125 -20.195312 L 49.355469 -21.703125 L 49.207031 -23.285156 L 49.207031 -24.792969 L 49.433594 -26.375 L 49.355469 -29.238281 L 49.507812 -30.894531 L 49.28125 -38.28125 L 49.65625 -44.535156 L 49.355469 -45.964844 L 49.207031 -47.398438 L 49.507812 -48.902344 L 49.355469 -50.410156 L 48.601562 -51.917969 L 46.265625 -52.671875 L 42.425781 -52.746094 L 40.011719 -52.519531 L 38.503906 -52.519531 L 36.246094 -51.84375 L 35.640625 -49.65625 L 35.792969 -41.445312 L 35.492188 -40.164062 L 35.492188 -35.792969 L 34.664062 -34.285156 L 33.382812 -33.53125 L 30.367188 -33.53125 L 29.011719 -33.683594 L 21.703125 -33.609375 L 20.121094 -34.285156 L 19.515625 -35.71875 L 19.515625 -40.238281 L 19.667969 -41.59375 L 19.441406 -49.054688 L 19.515625 -50.335938 L 18.613281 -51.917969 L 16.277344 -52.671875 L 11.832031 -52.519531 L 10.324219 -52.671875 L 8.890625 -52.519531 L 6.554688 -51.84375 L 5.726562 -50.5625 L 5.5 -48.902344 L 5.5 -47.472656 L 5.652344 -45.816406 L 5.425781 -44.382812 L 5.800781 -39.863281 L 5.574219 -38.203125 L 5.726562 -36.921875 L 5.425781 -35.417969 L 5.726562 -30.820312 L 5.574219 -29.238281 L 5.574219 -24.867188 L 5.800781 -23.433594 L 5.652344 -21.097656 L 5.800781 -19.367188 L 5.574219 -15.824219 L 5.726562 -14.167969 L 5.5 -12.660156 L 5.726562 -11.304688 L 5.574219 -9.796875 Z M 5.726562 -2.109375 "/></g></g></g><g fill="#ffffff" fill-opacity="1"><g transform="translate(584.90381, 104.313729)"><g><path d="M 5.425781 -2.183594 L 6.40625 -0.753906 L 7.835938 0.0742188 L 24.867188 -0.0742188 L 26.222656 0.152344 L 30.820312 -0.0742188 L 35.417969 0.226562 L 36.847656 0.0742188 L 38.429688 -0.679688 L 39.109375 -2.109375 L 39.257812 -3.542969 L 39.183594 -8.214844 L 39.335938 -9.644531 L 38.355469 -11.152344 L 36.09375 -11.90625 L 26.148438 -12.054688 L 24.714844 -11.832031 L 23.058594 -11.980469 L 21.398438 -11.832031 L 19.816406 -12.734375 L 19.140625 -15.070312 L 19.214844 -18.761719 L 19.894531 -20.34375 L 21.25 -21.175781 L 24.1875 -21.175781 L 25.695312 -21.324219 L 29.6875 -21.097656 L 31.722656 -21.25 L 33.304688 -21.097656 L 34.664062 -21.175781 L 36.167969 -22.003906 L 36.921875 -23.433594 L 37.074219 -29.386719 L 36.921875 -30.894531 L 36.246094 -32.328125 L 34.964844 -33.15625 L 31.949219 -33.230469 L 30.441406 -33.082031 L 28.859375 -33.082031 L 27.128906 -33.230469 L 21.175781 -33.15625 L 19.894531 -33.984375 L 18.988281 -35.339844 L 18.839844 -37.675781 L 19.59375 -39.863281 L 21.929688 -40.539062 L 36.394531 -40.617188 L 37.976562 -41.445312 L 38.808594 -42.800781 L 38.65625 -45.890625 L 38.429688 -47.320312 L 38.503906 -48.980469 L 38.730469 -50.410156 L 37.976562 -51.917969 L 36.394531 -52.597656 L 30.367188 -52.671875 L 29.011719 -52.519531 L 27.503906 -52.746094 L 24.1875 -52.597656 L 22.679688 -52.746094 L 19.742188 -52.671875 L 18.386719 -52.824219 L 8.515625 -52.597656 L 6.328125 -52.070312 L 5.574219 -50.410156 L 5.726562 -47.398438 L 5.425781 -45.210938 L 5.726562 -41.367188 L 5.574219 -39.785156 L 5.726562 -38.429688 L 5.726562 -24.941406 L 5.5 -23.359375 L 5.726562 -20.421875 L 5.574219 -17.40625 L 5.800781 -15.824219 L 5.652344 -14.167969 L 5.726562 -12.734375 L 5.5 -11.378906 L 5.652344 -9.644531 L 5.652344 -8.136719 L 5.800781 -5.199219 L 5.726562 -3.691406 Z M 5.425781 -2.183594 "/></g></g></g><g fill="#ffffff" fill-opacity="1"><g transform="translate(628.077464, 104.313729)"><g><path d="M 5.800781 -2.410156 L 6.328125 -0.753906 L 7.835938 0 L 9.269531 0.0742188 L 12.359375 -0.152344 L 13.941406 0 L 16.199219 0 L 18.535156 -0.753906 L 19.0625 -2.183594 L 19.214844 -3.769531 L 18.914062 -5.351562 L 19.140625 -8.589844 L 18.988281 -13.261719 L 19.667969 -14.769531 L 21.175781 -15.523438 L 22.53125 -15.523438 L 23.886719 -15.597656 L 25.769531 -14.996094 L 26.976562 -13.714844 L 28.9375 -11.078125 L 29.464844 -9.644531 L 31.574219 -5.878906 L 32.550781 -4.445312 L 33.230469 -3.164062 L 34.136719 -1.960938 L 35.640625 -0.601562 L 37.527344 -0.152344 L 40.238281 0 L 41.894531 -0.152344 L 43.402344 0 L 46.417969 0 L 48.074219 -0.152344 L 49.65625 -0.527344 L 49.960938 -2.109375 L 48.980469 -3.992188 L 46.566406 -7.6875 L 45.890625 -8.96875 L 44.984375 -10.324219 L 44.230469 -11.679688 L 43.253906 -12.886719 L 40.992188 -16.804688 L 40.765625 -18.613281 L 41.59375 -20.195312 L 43.703125 -22.230469 L 44.609375 -23.511719 L 45.136719 -24.941406 L 45.964844 -26.296875 L 46.492188 -27.578125 L 47.320312 -30.441406 L 47.398438 -36.394531 L 47.019531 -37.828125 L 46.792969 -39.257812 L 46.417969 -40.765625 L 44.382812 -44.910156 L 43.328125 -46.039062 L 42.648438 -47.171875 L 38.882812 -50.035156 L 36.246094 -51.390625 L 29.992188 -52.671875 L 28.105469 -52.824219 L 25.921875 -52.746094 L 24.265625 -52.824219 L 22.757812 -52.671875 L 21.097656 -52.824219 L 19.816406 -52.671875 L 15.296875 -52.824219 L 13.863281 -52.597656 L 10.777344 -52.898438 L 9.34375 -52.671875 L 7.6875 -52.746094 L 6.253906 -52.070312 L 5.652344 -50.488281 L 5.425781 -29.386719 L 5.652344 -27.203125 L 5.652344 -23.433594 L 5.5 -21.851562 L 5.425781 -18.988281 L 5.652344 -17.332031 L 5.425781 -14.242188 L 5.726562 -9.871094 L 5.574219 -8.289062 Z M 21.175781 -27.730469 L 19.894531 -28.40625 L 19.140625 -29.992188 L 18.914062 -38.429688 L 19.816406 -39.9375 L 21.324219 -40.691406 L 22.53125 -40.765625 L 26.675781 -40.691406 L 30.140625 -40.238281 L 32.476562 -38.808594 L 33.230469 -37.675781 L 33.757812 -36.472656 L 33.910156 -34.285156 L 33.683594 -32.25 L 33.082031 -30.742188 L 32.25 -29.464844 L 31.347656 -28.558594 L 30.214844 -28.03125 L 24.339844 -27.503906 L 22.832031 -27.730469 Z M 21.175781 -27.730469 "/></g></g></g><g fill="#ffffff" fill-opacity="1"><g transform="translate(680.292727, 104.313729)"><g><path d="M 5.425781 -2.183594 L 6.40625 -0.753906 L 7.835938 0.0742188 L 24.867188 -0.0742188 L 26.222656 0.152344 L 30.820312 -0.0742188 L 35.417969 0.226562 L 36.847656 0.0742188 L 38.429688 -0.679688 L 39.109375 -2.109375 L 39.257812 -3.542969 L 39.183594 -8.214844 L 39.335938 -9.644531 L 38.355469 -11.152344 L 36.09375 -11.90625 L 26.148438 -12.054688 L 24.714844 -11.832031 L 23.058594 -11.980469 L 21.398438 -11.832031 L 19.816406 -12.734375 L 19.140625 -15.070312 L 19.214844 -18.761719 L 19.894531 -20.34375 L 21.25 -21.175781 L 24.1875 -21.175781 L 25.695312 -21.324219 L 29.6875 -21.097656 L 31.722656 -21.25 L 33.304688 -21.097656 L 34.664062 -21.175781 L 36.167969 -22.003906 L 36.921875 -23.433594 L 37.074219 -29.386719 L 36.921875 -30.894531 L 36.246094 -32.328125 L 34.964844 -33.15625 L 31.949219 -33.230469 L 30.441406 -33.082031 L 28.859375 -33.082031 L 27.128906 -33.230469 L 21.175781 -33.15625 L 19.894531 -33.984375 L 18.988281 -35.339844 L 18.839844 -37.675781 L 19.59375 -39.863281 L 21.929688 -40.539062 L 36.394531 -40.617188 L 37.976562 -41.445312 L 38.808594 -42.800781 L 38.65625 -45.890625 L 38.429688 -47.320312 L 38.503906 -48.980469 L 38.730469 -50.410156 L 37.976562 -51.917969 L 36.394531 -52.597656 L 30.367188 -52.671875 L 29.011719 -52.519531 L 27.503906 -52.746094 L 24.1875 -52.597656 L 22.679688 -52.746094 L 19.742188 -52.671875 L 18.386719 -52.824219 L 8.515625 -52.597656 L 6.328125 -52.070312 L 5.574219 -50.410156 L 5.726562 -47.398438 L 5.425781 -45.210938 L 5.726562 -41.367188 L 5.574219 -39.785156 L 5.726562 -38.429688 L 5.726562 -24.941406 L 5.5 -23.359375 L 5.726562 -20.421875 L 5.574219 -17.40625 L 5.800781 -15.824219 L 5.652344 -14.167969 L 5.726562 -12.734375 L 5.5 -11.378906 L 5.652344 -9.644531 L 5.652344 -8.136719 L 5.800781 -5.199219 L 5.726562 -3.691406 Z M 5.425781 -2.183594 "/></g></g></g></svg>